<svg width="10" height="20" viewBox="0 0 10 20" fill="none" xmlns="http://www.w3.org/2000/svg">
<path d="M0.586417 1.1562L8.93858 10.2527C9.13404 10.4656 9.45089 10.4657 9.64636 10.2528C9.84183 10.0399 9.8418 9.69478 9.64634 9.4819L1.29418 0.385357C1.09876 0.172517 0.781884 0.172468 0.586416 0.385357C0.390948 0.598246 0.390993 0.943358 0.586417 1.1562Z" fill="white"/>
<path d="M1.06151 19.6146L9.41367 10.518C9.60914 10.3051 9.60916 9.96004 9.4137 9.74715C9.21823 9.53426 8.90137 9.53429 8.70591 9.74717L0.353752 18.8437C0.158328 19.0566 0.158283 19.4017 0.353751 19.6146C0.549219 19.8274 0.866091 19.8274 1.06151 19.6146Z" fill="white"/>
</svg>
